# xmcd
#
# Track frame offsets:
#	150
#	26591
#	49089
#	83760
#	109331
#	126177
#	172830
#	197768
#	211444
#	233962
#	268468
#	291148
#
# Disc length: 4047 seconds
#
# Revision: 2
# Processed by: cddbd v1.5.1PL2 Copyright (c) Steve Scherf et al.
# Submitted via: EasyCDDAExtractor 8.0.2.1
#
DISCID=b00fcd0c
DTITLE=Black Sabbath - Luna Theater Brussels 16-10-95 Disc 2
DYEAR=1995
DGENRE=Hard Rock
TTITLE0=Sabbath Bloody Sabbath
TTITLE1=Can't Get Close Enough
TTITLE2=War Pigs
TTITLE3=Drum Solo
TTITLE4=The Mob Rules
TTITLE5=Black Sabbath
TTITLE6=Heaven and Hell
TTITLE7=Guitar Solo
TTITLE8=Heaven and Hell Reprise
TTITLE9=Iron Man
TTITLE10=Paranoid
TTITLE11=Laguna Sunrise
EXTD=
EXTT0=
EXTT1=
EXTT2=
EXTT3=
EXTT4=
EXTT5=
EXTT6=
EXTT7=
EXTT8=
EXTT9=
EXTT10=
EXTT11=
PLAYORDER=
